# xmcd
#
# Track frame offsets:
#	150
#	17136
#	34502
#	49058
#
# Disc length: 910 seconds
#
# Revision: 0
# Processed by: cddbd v1.5.2PL0 Copyright (c) Steve Scherf et al.
# Submitted via: EasyCDDAExtractor 11.0.0.1
#
DISCID=27038c04
DTITLE=ΡΟΚΚΟΣ ΣΤΕΛΙΟΣ - ΚΑΠΟΙΟ ΒΡΑΔΥ
DYEAR=1999
DGENRE=ΛΑΪΚΑ
TTITLE0=Ρόκκος Στέλιος_01 Μη ξημερώσεις ουρανέ
TTITLE1=Ρόκκος Στέλιος_02 Ξέρεις τί είναι να μη σ' έχω
TTITLE2=Ρόκκος Στέλιος_03 Είναι η αγάπη μαχαιριά
TTITLE3=Ρόκκος Στέλιος_04 Έμεινα εδώ
EXTD=
EXTT0=
EXTT1=
EXTT2=
EXTT3=
PLAYORDER=
